HIERARCHY
ROOT Hips
{
     OFFSET 1.88212 96.90440 -13.34250
     CHANNELS 6 Xposition Yposition Zposition Zrotation Xrotation Yrotation
     JOINT Spine
     {
          OFFSET 0.00000 11.89050 0.00000
          CHANNELS 3 Zrotation Xrotation Yrotation
          JOINT Spine1
          {
               OFFSET -0.00000 25.65740 0.12766
               CHANNELS 3 Zrotation Xrotation Yrotation
               JOINT HEad
               {
                    OFFSET 0.00000 8.73416 0.01134
                    CHANNELS 3 Zrotation Xrotation Yrotation
                    End Site
                    {
                         OFFSET -0.29000 12.77420 2.51395
                    }
               }
               JOINT LeftShoulder1
               {
                    OFFSET 8.99000 -0.36225 -0.22000
                    CHANNELS 3 Zrotation Xrotation Yrotation
                    JOINT LeftArm
                    {
                         OFFSET 10.28270 -0.00338 0.32212
                         CHANNELS 3 Zrotation Xrotation Yrotation
                         JOINT LeftForeArm
                         {
                              OFFSET 32.76690 0.09914 -1.42434
                              CHANNELS 3 Zrotation Xrotation Yrotation
                              JOINT LeftHand
                              {
                                   OFFSET 27.56430 0.08536 1.02216
                                   CHANNELS 3 Zrotation Xrotation Yrotation
                                   End Site
                                   {
                                        OFFSET 16.74430 -0.60000 1.50291
                                   }
                              }
                         }
                    }
               }
               JOINT RightShoulder
               {
                    OFFSET -8.99000 -0.36225 -0.22000
                    CHANNELS 3 Zrotation Xrotation Yrotation
                    JOINT RightArm
                    {
                         OFFSET -10.28270 -0.00338 0.32212
                         CHANNELS 3 Zrotation Xrotation Yrotation
                         JOINT RightForeArm
                         {
                              OFFSET -32.89710 0.09914 -1.42434
                              CHANNELS 3 Zrotation Xrotation Yrotation
                              JOINT RightHand
                              {
                                   OFFSET -27.49210 0.08536 1.02216
                                   CHANNELS 3 Zrotation Xrotation Yrotation
                                   End Site
                                   {
                                        OFFSET -16.63120 -0.60000 1.50291
                                   }
                              }
                         }
                    }
               }
          }
     }
     JOINT LeftUpLeg
     {
          OFFSET 8.94580 -8.66707 0.10165
          CHANNELS 3 Zrotation Xrotation Yrotation
          JOINT LeftLeg
          {
               OFFSET 0.00000 -44.42270 1.37270
               CHANNELS 3 Zrotation Xrotation Yrotation
               JOINT LeftFoot
               {
                    OFFSET -0.25355 -42.09240 -1.46059
                    CHANNELS 3 Zrotation Xrotation Yrotation
                    JOINT LeftToes
                    {
                         OFFSET -0.04000 -4.41509 8.49910
                         CHANNELS 3 Zrotation Xrotation Yrotation
                         End Site
                         {
                              OFFSET 0.08000 -0.04745 9.77979
                         }
                    }
               }
          }
     }
     JOINT RightUpLeg
     {
          OFFSET -8.94580 -8.66707 0.10165
          CHANNELS 3 Zrotation Xrotation Yrotation
          JOINT RightLeg
          {
               OFFSET 0.00000 -44.42270 1.37270
               CHANNELS 3 Zrotation Xrotation Yrotation
               JOINT RightFoot
               {
                    OFFSET 0.25355 -42.09240 -1.46059
                    CHANNELS 3 Zrotation Xrotation Yrotation
                    JOINT RightToes
                    {
                         OFFSET 0.04000 -4.41509 8.49910
                         CHANNELS 3 Zrotation Xrotation Yrotation
                         End Site
                         {
                              OFFSET -0.08000 -0.13745 9.77979
                         }
                    }
               }
          }
     }
}
MOTION
Frames: 13
Frame Time: 0.01667
19.14005 80.34811 -37.59352 9.19086 12.38746 145.47955 -3.08358 35.71149 19.00908 -0.00347 0.04613 0.04626 13.68734 1.12615 -39.14659 0.06281 9.92965 8.72183 -103.48012 -31.94771 -85.82382 -71.98608 54.30860 -67.28159 29.55344 19.29265 -19.45374 -18.89464 4.50559 12.07657 108.13747 -40.94170 73.44810 -21.14533 22.18362 103.60503 47.81590 -4.77247 -50.11044 7.28411 -32.39666 -9.15065 -25.81281 33.13216 60.84667 -6.12507 0.00752 -0.00033 8.97149 -10.12839 -81.76523 -33.12525 12.10315 17.45152 56.28133 43.25805 -45.36284 -25.72847 0.00242 0.00837 14.51155 -53.71471 17.33231 
19.03656 79.66984 -37.14069 9.08302 13.33262 146.16586 -4.78009 39.31081 24.75678 -0.01315 0.04694 0.03875 13.18142 -2.70438 -43.08355 1.34595 7.01951 3.76458 -103.05059 -39.77145 -78.07166 -62.67246 53.63512 -77.12940 21.91861 11.40877 -19.18540 -28.87563 2.54772 14.73311 110.98621 -41.80426 77.94657 -30.00425 20.16134 87.32603 39.12605 5.35150 -36.31249 6.52663 -32.37839 -8.94480 -26.02252 33.80001 60.88710 -7.47209 0.00775 0.00058 10.52749 -10.37670 -82.11686 -33.17032 12.57724 17.73824 55.87201 43.46933 -46.09843 -25.33212 0.01948 0.00017 13.67950 -53.68197 16.14546 
19.04125 79.08838 -36.67426 8.90367 14.28451 146.85944 -6.34272 41.88045 29.47725 -0.01034 -0.02209 -0.04310 12.57041 -5.14022 -46.25169 1.78433 5.26549 -0.06979 -101.91810 -43.92615 -72.67612 -57.46729 53.13326 -82.79160 15.79357 6.92823 -22.61617 -29.41071 2.95934 9.53046 100.64789 -34.76659 78.36604 -33.05218 20.21290 66.35231 47.06301 -18.56494 -26.81603 5.84896 -32.39249 -8.73570 -26.28740 34.48738 60.96844 -8.88309 0.00818 0.00156 12.07279 -10.58292 -82.44359 -33.26849 13.02377 17.99550 55.81452 43.82190 -47.29725 -25.63513 0.01569 0.00131 13.81036 -53.90030 15.84241 
19.16868 78.60272 -36.24691 8.65596 15.19004 147.58177 -7.64486 43.58488 33.05901 -0.00876 -0.01976 -0.04651 12.06514 -6.55096 -48.68687 1.81452 4.40279 -3.29702 -101.03769 -45.93339 -69.35773 -54.41100 53.12842 -85.79903 13.94873 4.16112 -21.51406 -29.40153 3.95386 5.13358 90.03512 -27.77520 80.22741 -31.61637 16.47009 43.24438 18.19824 0.64893 -15.52127 5.25214 -32.42352 -8.54262 -26.57618 35.19556 61.06303 -10.37252 0.00874 0.00217 13.58310 -10.75166 -82.74630 -33.39490 13.44631 18.19164 56.02956 44.23170 -48.78843 -25.60813 0.01348 0.00275 13.69666 -54.24434 15.40403 
19.41202 78.19836 -35.90159 8.35213 16.00818 148.33450 -8.63286 44.59737 35.47178 -0.00478 -0.01272 -0.04437 11.74788 -7.05942 -50.27591 1.67661 4.34224 -5.96298 -100.73696 -46.74573 -67.73537 -52.74301 53.55458 -87.01534 12.18717 2.50183 -23.00175 -28.47003 5.32478 1.65778 78.18132 -21.39673 82.06066 -31.61591 9.60972 25.93634 26.25005 -0.97574 -3.47891 4.72730 -32.45784 -8.38015 -26.87820 35.92762 61.16918 -11.93551 0.00935 0.00212 15.04802 -10.92842 -83.01624 -33.53051 13.85501 18.31495 56.45042 44.64153 -50.39788 -25.68596 0.01092 0.00379 13.91600 -54.70592 15.30630 
19.75354 77.86115 -35.66724 8.00939 16.70801 149.10071 -9.34197 45.06898 36.77884 -0.00268 -0.00464 -0.04043 11.63443 -6.85407 -51.00889 1.54790 4.89205 -8.13509 -101.08129 -46.93895 -67.45114 -60.38575 54.03704 -79.47148 12.78029 5.84643 -23.43228 -26.97612 6.80832 -0.82305 70.19524 -17.82766 83.62531 -31.29197 -0.09723 19.84502 9.19392 3.68738 10.52755 4.26610 -32.49281 -8.25396 -27.19687 36.68404 61.30337 -13.55402 0.00999 0.00137 16.47405 -11.19122 -83.25913 -33.66769 14.25392 18.36921 56.99907 45.02073 -51.97375 -25.58475 0.01010 0.00558 14.14156 -55.23721 15.22673 
20.17579 77.58754 -35.54387 7.64517 17.27434 149.85228 -10.93931 45.51833 36.88271 -0.03213 0.06502 -0.11328 12.23733 -6.70846 -49.70725 1.84711 5.04859 -8.60423 -101.99889 -46.68847 -68.01184 -65.23791 54.49821 -74.09374 17.01199 -9.25943 -14.95027 -24.71150 7.05301 -1.83913 68.70074 -16.82861 82.71005 -29.01951 -7.56592 26.40912 19.41649 12.63768 17.28844 3.86651 -32.53214 -8.15979 -27.53763 37.45953 61.48609 -15.20667 0.01063 0.00025 17.86822 -11.61024 -83.49776 -33.80550 14.64197 18.36769 57.61020 45.35127 -53.41217 -25.36473 0.00988 0.00679 14.47707 -55.77364 15.30903 
20.65014 77.39250 -35.51776 7.28697 17.69710 150.55089 -13.11593 45.96364 35.78474 -0.02587 0.06053 -0.10703 13.22152 -6.42041 -46.80326 2.36056 5.03140 -7.43779 -104.79188 -42.59868 -69.32043 -72.88121 54.92899 -64.03113 15.69809 10.25551 -23.63452 -12.33611 12.97866 -5.93797 64.80000 -17.81282 89.25199 -22.64738 -11.08270 40.39270 12.98596 12.65770 1.35051 3.54403 -32.58046 -8.08717 -27.89357 38.23837 61.73178 -16.87300 0.01126 -0.00076 19.23491 -12.21190 -83.76154 -33.93344 15.00869 18.32871 58.22640 45.61787 -54.64518 -24.95806 0.01008 0.00798 14.83098 -56.22514 15.49510 
21.13760 77.29994 -35.56279 6.97460 17.97511 151.14799 -15.49772 46.46058 33.48193 -0.00534 0.05237 -0.09616 14.33706 -5.91734 -42.50916 0.57239 10.49270 -14.55463 -111.34162 -44.46169 -81.47025 -73.44034 54.75598 -59.27103 17.93699 -13.83795 -12.42632 -10.45207 11.41130 -3.72764 70.91439 -18.97949 86.53446 -12.20297 -9.61317 57.82817 16.34959 13.36116 16.63509 3.32582 -32.63266 -8.02139 -28.24109 38.99335 62.04285 -18.53188 0.01173 -0.00128 20.57621 -12.96739 -84.06483 -34.03385 15.33603 18.27967 58.80072 45.80588 -55.62406 -24.39574 0.01023 0.00880 15.18124 -56.48849 15.76508 
21.59753 77.32498 -35.67034 6.75511 18.10283 151.58638 -17.85632 47.07979 30.04657 0.00145 0.05756 -0.08234 15.40933 -5.19494 -37.06517 1.02071 9.39733 -9.99134 -111.86216 -40.39538 -81.07264 -74.23791 54.65711 -56.83120 17.74385 6.97307 -14.89677 2.16381 10.59276 -7.74510 69.14462 -16.23663 87.42805 -4.05897 -2.95942 70.36803 20.84141 15.99272 1.17650 3.24721 -32.68194 -7.94297 -28.54523 39.69253 62.40981 -20.16155 0.01184 -0.00125 21.89257 -13.82228 -84.40051 -34.08614 15.59591 18.25256 59.29043 45.90296 -56.30412 -23.69530 0.01033 0.00911 15.43193 -56.48830 15.99522 
21.99113 77.46510 -35.83846 6.67650 18.07747 151.80542 -19.89342 47.83524 25.48678 0.01367 0.05039 -0.07440 16.19829 -4.19030 -30.70373 1.41004 8.46524 -5.15016 -112.68921 -38.34085 -81.47993 -74.84489 54.53036 -55.61046 17.77989 -4.00663 -13.81442 3.52259 9.46842 -2.93763 77.59027 -18.39401 84.04620 1.69930 6.52149 79.65267 3.48157 4.19133 16.66378 3.34107 -32.71703 -7.82972 -28.77163 40.31059 62.81945 -21.74186 0.01144 -0.00087 23.18487 -14.73318 -84.74578 -34.07846 15.76043 18.28473 59.65937 45.90472 -56.65318 -22.91420 0.01066 0.00853 15.51958 -56.21652 16.09050 
22.29350 77.70506 -36.04114 6.68003 18.02228 151.92706 -21.68717 48.67146 20.59581 0.00611 0.01661 -0.02236 16.74661 -3.05782 -24.21702 2.52424 8.29978 -3.16166 -115.48982 -39.09609 -84.08511 -75.64107 54.56459 -54.64015 17.95376 -8.29175 -13.74962 7.78097 8.56190 -0.35016 83.17816 -19.04155 80.98352 6.18025 17.13007 87.11980 -5.15853 -2.00881 23.25179 3.46347 -32.67184 -7.72238 -28.86895 40.79496 63.19242 -23.23536 0.01065 -0.00023 24.45316 -15.59335 -85.08586 -34.03850 15.87990 18.36482 59.94618 45.86754 -56.88531 -22.12234 0.00389 0.00387 15.55378 -55.81212 16.13204 
22.49208 78.02013 -36.28314 7.04606 17.57067 151.40578 -23.14489 49.21856 15.86923 0.00934 0.01522 -0.01667 16.97377 -1.87058 -17.53777 4.02520 8.63898 -2.99417 -119.09527 -40.62347 -88.06298 -74.74316 54.46933 -54.90847 13.18157 -7.06544 -17.96718 13.68263 8.11977 0.78266 86.61284 -18.90236 77.47309 9.84048 28.11453 93.16870 -6.82427 -1.20995 20.06292 4.30905 -32.70606 -7.07597 -28.82225 41.12322 63.52022 -24.62544 0.00967 0.00084 25.70885 -16.40437 -85.42519 -33.64091 15.52244 18.76980 60.17067 45.79485 -57.01928 -21.31812 0.00379 0.00287 15.48421 -55.31218 16.05201 
